<svg width="128" height="128" viewBox="0 0 128 128" fill="none" xmlns="http://www.w3.org/2000/svg">
<path d="M83.8333 42.6667C83.8333 53.6204 74.9536 62.5 64 62.5C53.0463 62.5 44.1666 53.6204 44.1666 42.6667C44.1666 31.7131 53.0463 22.8334 64 22.8334C74.9536 22.8334 83.8333 31.7131 83.8333 42.6667Z" stroke="white" stroke-width="3" stroke-linecap="round"/>
<path d="M32.4982 75.165C33.7821 73.1016 36.0814 72 38.5117 72H89.4883C91.9186 72 94.2179 73.1016 95.5018 75.165C98.541 80.0493 103.728 90.2107 103.99 102.996C104.001 103.548 103.552 104 103 104H25C24.4477 104 23.999 103.548 24.0103 102.996C24.2715 90.2107 29.459 80.0493 32.4982 75.165Z" stroke="white" stroke-width="3" stroke-linecap="round"/>
</svg>
